<svg width="128" height="128" viewBox="0 0 128 128" fill="none" xmlns="http://www.w3.org/2000/svg">
<g clip-path="url(#clip0_26_91)">
<rect width="128" height="128" rx="32" fill="#020817"/>
<path d="M78.9615 85.7053C78.6751 85.1987 78.8837 84.5602 79.3821 84.2598C79.5934 84.1325 79.7966 83.9992 79.9917 83.8597C82.2365 82.2349 83.5768 80.1518 84.0127 77.6104C84.3396 75.7148 84.1435 74.0066 83.4243 72.4859C82.7051 70.9444 81.5173 69.7362 79.861 68.8613C78.2046 67.9656 76.1342 67.5177 73.6496 67.5177H69.2639C68.9034 67.5177 68.5708 67.3237 68.3934 67.0098L65.2003 61.3611C64.9727 60.9586 65.0508 60.4525 65.3892 60.1373L66.1344 59.4431C66.3195 59.2707 66.5631 59.1749 66.816 59.1749H73.7477C75.8399 59.1749 77.7796 58.8103 79.5667 58.0812C81.3756 57.3313 82.8794 56.2794 84.0781 54.9253C85.2986 53.5505 86.0505 51.9257 86.3338 50.0509C86.7915 47.5719 86.2466 45.5305 84.6992 43.9265C84.6876 43.9144 84.6759 43.9024 84.6641 43.8904C84.2125 43.4303 84.1443 42.6672 84.6161 42.2277L92.152 35.2081C92.4726 34.9094 92.9524 34.8514 93.3221 35.0867C95.3922 36.4043 96.8876 38.0593 97.8084 40.0519C98.9853 42.5517 99.2904 45.3847 98.7237 48.551C98.2661 51.1341 97.3507 53.3526 95.9777 55.2066C94.6264 57.0397 92.9701 58.5395 91.0086 59.7061C89.1115 60.8142 87.0818 61.6203 84.9196 62.1243C84.7856 62.1556 84.6811 62.2611 84.653 62.3958C84.6087 62.6073 84.7647 62.8078 84.9803 62.8238C87.1744 62.9862 89.1948 63.6655 91.0413 64.8618C93.0028 66.1325 94.4848 67.9239 95.4873 70.2362C96.4899 72.5276 96.7187 75.2877 96.1738 78.5166C95.5854 81.8287 94.2233 84.8076 92.0874 87.4531C90.1243 89.8656 87.5167 91.8118 84.2646 93.2916C83.8036 93.5013 83.2629 93.3146 83.0137 92.8737L78.9615 85.7053Z" fill="#F8FAFC"/>
<ellipse cx="72.5" cy="63.5" rx="10.5" ry="7.5" fill="url(#paint0_linear_26_91)"/>
<ellipse cx="90.3527" cy="40.2427" rx="10.5" ry="15.9696" transform="rotate(57.9221 90.3527 40.2427)" fill="url(#paint1_linear_26_91)"/>
<ellipse cx="81.7644" cy="86.6664" rx="10.5" ry="15.9696" transform="rotate(-45.7272 81.7644 86.6664)" fill="url(#paint2_linear_26_91)"/>
<path d="M27.5543 95.9996C26.9347 95.9996 26.4642 95.4419 26.5686 94.8312L37.1636 32.8315C37.2457 32.3512 37.662 32 38.1493 32H49.2397L46.7468 46.703L44.2538 61.4061H45.058L60.4017 46.703L68.0736 39.3515L75.7454 32H87.8064C88.7105 32 89.1505 33.1046 88.4939 33.7262L60.5473 60.1848C60.2156 60.4989 60.1389 60.9978 60.3609 61.397L78.779 94.5136C79.1497 95.1801 78.6678 95.9996 77.9051 95.9996H65.8546C65.4876 95.9996 65.1501 95.7986 64.9753 95.4759L51.0219 69.7146C50.7077 69.1345 49.9277 69.0123 49.4511 69.4685L41.8218 76.772C41.6673 76.9199 41.5643 77.1134 41.5279 77.3242L38.4462 95.1698C38.3634 95.6493 37.9474 95.9996 37.4608 95.9996H27.5543Z" fill="url(#paint3_linear_26_91)"/>
<g filter="url(#filter0_f_26_91)">
<circle cx="22" cy="28" r="12" fill="#B2B3BD"/>
</g>
<g filter="url(#filter1_f_26_91)">
<circle cx="106" cy="96" r="12" fill="#B2B3BD"/>
</g>
</g>
<defs>
<filter id="filter0_f_26_91" x="-38" y="-32" width="120" height="120" filterUnits="userSpaceOnUse" color-interpolation-filters="sRGB">
<feFlood flood-opacity="0" result="BackgroundImageFix"/>
<feBlend mode="normal" in="SourceGraphic" in2="BackgroundImageFix" result="shape"/>
<feGaussianBlur stdDeviation="24" result="effect1_foregroundBlur_26_91"/>
</filter>
<filter id="filter1_f_26_91" x="46" y="36" width="120" height="120" filterUnits="userSpaceOnUse" color-interpolation-filters="sRGB">
<feFlood flood-opacity="0" result="BackgroundImageFix"/>
<feBlend mode="normal" in="SourceGraphic" in2="BackgroundImageFix" result="shape"/>
<feGaussianBlur stdDeviation="24" result="effect1_foregroundBlur_26_91"/>
</filter>
<linearGradient id="paint0_linear_26_91" x1="63.2353" y1="66" x2="80.3494" y2="62.9799" gradientUnits="userSpaceOnUse">
<stop stop-color="#020817"/>
<stop offset="1" stop-color="#020817" stop-opacity="0"/>
</linearGradient>
<linearGradient id="paint1_linear_26_91" x1="81.088" y1="45.5659" x2="98.6147" y2="44.1133" gradientUnits="userSpaceOnUse">
<stop stop-color="#020817"/>
<stop offset="1" stop-color="#020817" stop-opacity="0"/>
</linearGradient>
<linearGradient id="paint2_linear_26_91" x1="72.4997" y1="91.9896" x2="90.0264" y2="90.537" gradientUnits="userSpaceOnUse">
<stop stop-color="#020817"/>
<stop offset="1" stop-color="#020817" stop-opacity="0"/>
</linearGradient>
<linearGradient id="paint3_linear_26_91" x1="92.5" y1="11" x2="18.5" y2="108.5" gradientUnits="userSpaceOnUse">
<stop stop-color="white"/>
<stop offset="0.679336" stop-color="#F8FAFC"/>
<stop offset="1" stop-color="#020817"/>
</linearGradient>
<clipPath id="clip0_26_91">
<rect width="128" height="128" rx="32" fill="white"/>
</clipPath>
</defs>
</svg>
